HIERARCHY
ROOT root
{
	OFFSET 0.000000 0.000000 0.000000
	CHANNELS 6 Xposition Yposition Zposition Zrotation Yrotation Xrotation
	JOINT lhip
	{
		OFFSET 0.058581 -0.082280 -0.017664
		CHANNELS 3 Zrotation Yrotation Xrotation
		JOINT lknee
		{
			OFFSET 0.043451 -0.386469 0.008037
			CHANNELS 3 Zrotation Yrotation Xrotation
			JOINT lankle
			{
				OFFSET -0.014790 -0.426874 -0.037428
				CHANNELS 3 Zrotation Yrotation Xrotation
				JOINT ltoe
				{
					OFFSET 0.041054 -0.060286 0.122042
					CHANNELS 3 Zrotation Yrotation Xrotation
					End Site
					{
						OFFSET 0.000000 0.000000 0.000000
					}
				}
			}
		}
	}
	JOINT rhip
	{
		OFFSET -0.060310 -0.090513 -0.013543
		CHANNELS 3 Zrotation Yrotation Xrotation
		JOINT rknee
		{
			OFFSET -0.043257 -0.383688 -0.004843
			CHANNELS 3 Zrotation Yrotation Xrotation
			JOINT rankle
			{
				OFFSET 0.019056 -0.420046 -0.034562
				CHANNELS 3 Zrotation Yrotation Xrotation
				JOINT rtoe
				{
					OFFSET -0.034840 -0.062106 0.130323
					CHANNELS 3 Zrotation Yrotation Xrotation
					End Site
					{
						OFFSET 0.000000 0.000000 0.000000
					}
				}
			}
		}
	}
	JOINT lowerback
	{
		OFFSET 0.004439 0.124404 -0.038385
		CHANNELS 3 Zrotation Yrotation Xrotation
		JOINT upperback
		{
			OFFSET 0.004488 0.137956 0.026820
			CHANNELS 3 Zrotation Yrotation Xrotation
			JOINT chest
			{
				OFFSET -0.002265 0.056032 0.002855
				CHANNELS 3 Zrotation Yrotation Xrotation
				JOINT lowerneck
				{
					OFFSET -0.013390 0.211636 -0.033468
					CHANNELS 3 Zrotation Yrotation Xrotation
					JOINT upperneck
					{
						OFFSET 0.010113 0.088937 0.050410
						CHANNELS 3 Zrotation Yrotation Xrotation
						End Site
						{
							OFFSET 0.000000 0.000000 0.000000
						}
					}
				}
				JOINT lclavicle
				{
					OFFSET 0.071702 0.114000 -0.018898
					CHANNELS 3 Zrotation Yrotation Xrotation
					JOINT lshoulder
					{
						OFFSET 0.122921 0.045205 -0.019046
						CHANNELS 3 Zrotation Yrotation Xrotation
						JOINT lelbow
						{
							OFFSET 0.255332 -0.015649 -0.022946
							CHANNELS 3 Zrotation Yrotation Xrotation
							JOINT lwrist
							{
								OFFSET 0.265709 0.012698 -0.007375
								CHANNELS 3 Zrotation Yrotation Xrotation
								End Site
								{
									OFFSET 0.000000 0.000000 0.000000
								}
							}
						}
					}
				}
				JOINT rclavicle
				{
					OFFSET -0.082954 0.112472 -0.023707
					CHANNELS 3 Zrotation Yrotation Xrotation
					JOINT rshoulder
					{
						OFFSET -0.113228 0.046853 -0.008472
						CHANNELS 3 Zrotation Yrotation Xrotation
						JOINT relbow
						{
							OFFSET -0.260127 -0.014369 -0.031269
							CHANNELS 3 Zrotation Yrotation Xrotation
							JOINT rwrist
							{
								OFFSET -0.269108 0.006794 -0.006027
								CHANNELS 3 Zrotation Yrotation Xrotation
								End Site
								{
									OFFSET 0.000000 0.000000 0.000000
								}
							}
						}
					}
				}
			}
		}
	}
}
MOTION
Frames: 17
Frame Time: 0.033333
1.872039 0.542214 0.987303 -89.255493 -1.570626 93.099239 4.874702 -1.220075 -31.263758 -2.608765 15.423405 12.076500 -0.733525 9.130980 1.597034 0.000000 -0.000000 0.000000 -2.738704 -6.469214 -3.144844 -0.691545 -7.769185 15.687855 5.270528 -3.995349 -14.276584 0.000000 -0.000000 0.000000 2.784683 6.729313 14.547478 -3.073240 -0.175743 -10.864282 -1.245552 3.528443 2.594974 -2.443464 42.186192 -7.487360 -5.119460 39.949198 6.097787 -20.703805 8.238568 -5.964565 -45.332587 2.482817 5.561824 5.851585 -45.063675 8.081465 -3.711561 -12.378425 -9.140731 15.582748 -0.757653 -1.895271 58.634832 20.260634 26.621329 -3.361352 71.503143 15.838542 9.118665 11.840931 -16.742789 
1.844235 0.534095 0.981972 -88.659034 -2.144117 93.057871 3.844107 -2.882033 -31.346775 -2.059825 14.694758 15.583321 0.887988 9.365831 3.444277 0.000000 -0.000000 0.000000 -3.775931 -6.355866 -2.163087 -1.135079 -6.901375 18.065353 5.847917 -5.074718 -15.589214 0.000000 -0.000000 0.000000 1.851411 6.686783 14.224199 -2.915378 -0.031528 -11.059837 -1.294026 3.534607 2.666838 -2.390114 42.198642 -7.483345 -5.105398 40.835407 5.881437 -20.944896 7.882894 -5.712456 -46.258860 1.048834 6.454977 6.590443 -44.618788 7.578734 -2.072379 -12.261685 -10.719427 15.648591 -0.869371 -1.387018 58.264682 19.312911 27.242678 -4.943782 69.026279 14.985341 9.041767 11.314027 -15.688950 
1.817983 0.525742 0.980328 -87.710001 -3.151167 93.312661 3.510307 -4.983498 -32.346221 -2.589344 14.788117 19.254932 1.744627 9.991995 2.845122 0.000000 -0.000000 0.000000 -4.992254 -5.965602 -2.709748 -1.889164 -6.649002 22.527651 6.432096 -6.441448 -16.078700 0.000000 -0.000000 0.000000 0.746160 6.956744 13.784932 -3.065131 -0.119439 -11.386585 -1.511665 3.093061 2.982453 -2.399519 42.376699 -8.471041 -4.313691 40.932601 6.982747 -21.416422 6.915667 -5.799481 -46.951376 -0.869662 7.351235 6.395228 -43.218862 7.922805 -1.391626 -12.510735 -10.996757 16.650556 -1.542197 -1.148067 57.953220 17.950379 27.234885 -5.751317 65.646248 15.281487 10.133153 10.921379 -12.836126 
1.783499 0.513827 0.984083 -87.077149 -3.601750 93.413360 2.880755 -4.791606 -30.958084 -4.099681 15.352107 21.312270 3.053463 9.437047 -0.446434 0.000000 -0.000000 0.000000 -6.074626 -5.442065 -4.591652 -3.047490 -6.854792 30.441757 7.761115 -7.179562 -12.536283 0.000000 -0.000000 0.000000 0.303638 6.985548 12.511521 -3.109533 0.651444 -10.544356 -1.825788 2.790252 2.880599 -2.455739 41.517077 -8.093340 -4.120252 41.218020 7.284790 -21.960268 5.288128 -5.521919 -48.602767 -3.419229 8.643406 5.348336 -41.592744 9.998009 -1.407537 -12.195990 -10.059278 17.093118 -2.705794 -0.453280 58.476534 15.298719 26.416920 -6.744129 60.370524 14.930579 12.041666 9.793298 -10.235048 
1.763270 0.505733 0.988621 -86.330035 -3.751663 93.398714 1.628103 -4.817793 -28.772411 -4.544753 14.224475 20.086669 4.202246 9.450509 -1.735654 0.000000 -0.000000 0.000000 -6.947104 -5.329592 -6.708628 -3.370233 -7.055452 36.571547 8.621806 -7.477010 -8.290640 0.000000 -0.000000 0.000000 0.207950 6.386295 11.977419 -2.966289 0.928366 -10.476524 -1.951538 2.600109 2.946910 -2.291377 40.721351 -7.563544 -3.900124 41.663723 7.779193 -22.246186 4.716976 -5.248580 -49.863066 -4.778351 9.669874 4.406494 -41.538724 11.621814 -1.585593 -12.441576 -9.619724 17.092565 -3.446063 -0.196463 58.950984 13.768132 25.830292 -7.372415 56.600993 13.443262 13.537294 9.386056 -9.696843 
1.737878 0.495872 0.996137 -85.053972 -4.113225 93.649776 0.058605 -5.820376 -26.197178 -4.908679 12.672622 18.185657 5.796161 10.066526 -2.880709 0.000000 -0.000000 0.000000 -8.260450 -4.657787 -10.934939 -3.941739 -7.950483 45.572990 9.192745 -8.795644 0.287670 0.000000 -0.000000 0.000000 -0.446821 5.278296 10.817351 -2.588224 1.091406 -10.243883 -1.948419 2.028039 3.140977 -1.964421 39.812942 -7.124564 -3.817201 42.326420 8.292015 -22.387820 4.529412 -4.651253 -51.197902 -6.424576 11.555619 2.799294 -43.577331 13.948875 -2.186731 -13.239485 -10.464123 17.410250 -4.555299 0.069177 59.119756 12.173373 25.573751 -8.454634 51.704139 10.369777 15.110421 9.058592 -9.768920 
1.713640 0.487793 1.002584 -83.939193 -4.242124 93.730558 -0.947275 -6.150799 -23.780750 -5.441553 11.315367 16.934695 6.574487 10.401199 -4.205404 0.000000 -0.000000 0.000000 -9.249499 -4.087274 -15.053636 -4.592396 -8.921161 52.919600 8.426815 -10.267472 2.821065 0.000000 -0.000000 0.000000 -0.932769 4.304727 9.950969 -2.204457 1.137854 -9.990765 -1.887564 1.309913 3.336846 -1.427097 39.442633 -6.723410 -3.705300 42.593576 8.632036 -22.282962 4.178617 -4.020504 -52.042615 -7.770735 13.408053 0.611210 -47.444677 16.941645 -2.722711 -13.942839 -11.978719 17.789307 -5.397040 0.308629 58.627400 10.679476 25.000935 -8.949368 47.706380 7.914941 16.261365 8.720402 -10.747548 
1.691270 0.483051 1.007112 -82.897786 -3.614703 93.654846 -0.873672 -6.038095 -21.683203 -5.769308 10.104682 16.279351 6.855458 10.665989 -5.530091 0.000000 -0.000000 0.000000 -9.145381 -3.143796 -19.053551 -5.169867 -10.008050 57.922375 7.756778 -11.243298 1.724140 0.000000 -0.000000 0.000000 -0.995191 3.207657 9.870391 -1.575695 1.336343 -10.227877 -1.733093 0.775589 3.577967 -0.483260 39.296438 -6.427125 -3.147116 41.941973 9.761493 -22.042152 3.793751 -3.755780 -52.638468 -9.213052 15.345038 -2.084206 -52.322070 21.014720 -3.326505 -14.944677 -12.732780 18.228367 -6.165918 0.411381 57.569531 9.152610 24.106216 -9.159455 44.549382 6.357754 16.870172 8.575442 -11.713933 
1.669192 0.477947 1.010409 -82.136791 -3.041028 93.309427 -1.292794 -6.141297 -19.283030 -5.394940 8.398722 15.522138 7.097831 11.431637 -6.486057 0.000000 -0.000000 0.000000 -9.084074 -2.332185 -22.986851 -5.161427 -10.632423 60.970164 8.065785 -11.260837 1.496480 0.000000 -0.000000 0.000000 -0.694905 2.241189 10.311302 -1.170290 1.516297 -10.429257 -1.712820 0.375093 3.593339 0.628094 38.492011 -6.099072 -2.062318 40.534478 11.466092 -21.829605 3.336340 -3.755463 -53.089462 -10.689600 17.357501 -4.674765 -57.422943 25.376468 -3.801636 -16.298682 -12.219488 18.448621 -6.748966 0.340639 56.543242 7.585635 23.019897 -9.166220 41.445782 5.127919 17.632239 8.353719 -12.164793 
1.640910 0.472960 1.013217 -81.664497 -2.385127 92.809958 -1.629131 -5.642305 -16.035703 -5.085657 6.455720 14.391614 7.079528 12.276570 -7.652035 0.000000 -0.000000 0.000000 -8.872154 -1.223273 -27.451282 -4.853017 -11.696627 61.420556 8.708857 -10.894572 0.779819 0.000000 -0.000000 0.000000 -0.581770 1.129473 10.759898 -0.770491 1.874205 -10.468664 -1.522749 -0.092721 3.586464 1.782533 36.141335 -5.691028 -0.950046 37.267171 12.938339 -21.262831 3.033986 -3.845818 -53.814419 -12.780072 19.489792 -7.337796 -63.399826 29.903427 -3.847391 -17.164799 -11.987464 18.543265 -7.174305 0.151696 55.487013 6.172829 21.683981 -8.809132 36.923866 4.024547 18.299988 8.024077 -12.510450 
1.617550 0.469800 1.014198 -82.241482 -2.061582 92.549608 -1.674584 -4.923094 -13.351959 -5.175078 5.630967 13.257660 7.025929 12.986782 -8.780091 0.000000 -0.000000 0.000000 -8.916612 0.253838 -30.777670 -4.377077 -12.711617 59.144190 9.296806 -10.660297 0.173755 0.000000 -0.000000 0.000000 -0.912869 0.677466 10.555117 -0.471191 2.445976 -10.331333 -1.231754 -0.397529 3.881978 2.501226 33.316686 -5.594627 -0.279343 33.517971 14.103162 -20.876232 3.147330 -3.942102 -54.395614 -14.655944 20.969062 -8.544091 -67.290677 31.149529 -3.384648 -17.755154 -13.297235 18.739461 -7.335568 -0.091699 54.471028 5.631440 21.060766 -8.393553 32.718619 3.144617 18.583467 7.699528 -12.392790 
1.594748 0.466462 1.014527 -82.279831 -1.736357 91.988208 -1.778080 -4.393422 -10.706401 -5.095996 4.630163 12.749200 6.675916 13.470874 -10.096249 0.000000 -0.000000 0.000000 -8.983729 0.823729 -32.876230 -3.635546 -13.985997 54.429986 9.921353 -10.629834 -0.405563 0.000000 -0.000000 0.000000 -0.890232 -0.057547 11.039234 -0.278150 2.643760 -10.668252 -1.031021 -0.787278 4.290994 2.905106 29.743019 -5.947990 0.287862 29.201114 15.616985 -20.653128 3.178467 -4.038043 -54.864166 -16.326882 22.103457 -8.674433 -69.986732 30.493226 -2.552757 -18.411342 -15.707952 18.918344 -7.209120 -0.579344 53.340440 5.257550 20.532552 -7.867162 28.513342 2.484424 18.464914 7.359992 -11.264474 
1.572520 0.463178 1.014059 -81.790270 -1.598608 91.469984 -2.213033 -4.105025 -8.499163 -4.627973 3.715901 12.838124 6.023264 13.669285 -11.475622 0.000000 -0.000000 0.000000 -9.127356 0.527194 -34.094679 -3.075745 -15.607008 47.799058 10.439483 -10.834182 -0.321992 0.000000 -0.000000 0.000000 -0.717263 -0.965924 11.888810 -0.244365 2.413110 -11.381823 -0.953525 -1.226777 4.610954 3.003759 25.653258 -6.576034 0.670224 24.548061 17.234667 -20.550187 3.078769 -3.991114 -55.106765 -17.782127 22.840993 -7.932348 -71.310936 28.929870 -1.918892 -19.463918 -17.452745 19.111313 -6.913343 -1.052730 52.291243 4.992198 19.966847 -7.382144 24.647597 2.089159 18.682313 7.010616 -9.811949 
1.548985 0.461488 1.012434 -82.023236 -1.505334 91.367865 -2.360873 -3.266559 -6.434341 -4.410680 3.089371 12.558172 5.409925 13.753711 -12.723231 0.000000 -0.000000 0.000000 -8.888418 0.452051 -34.868169 -2.169514 -16.811590 39.162096 10.663072 -10.790715 0.292832 0.000000 -0.000000 0.000000 -0.753951 -1.340774 11.887209 -0.215158 2.281485 -11.568919 -0.803097 -1.555950 4.733092 2.991766 21.522794 -6.738981 0.804708 19.815930 18.257587 -20.443178 3.061341 -3.816365 -55.213904 -19.010443 23.256812 -7.137073 -71.552508 27.375702 -1.779069 -19.887632 -18.016489 19.382464 -6.734209 -1.254801 51.371152 4.796684 19.304274 -7.063052 21.653810 1.811286 18.654614 6.654923 -8.638059 
1.525186 0.460468 1.009887 -82.208849 -1.524732 91.373816 -2.476561 -2.308879 -4.602668 -4.198918 2.566553 12.524946 4.775280 13.588543 -13.941794 0.000000 -0.000000 0.000000 -8.431560 -0.099467 -34.584819 -0.703978 -17.435685 28.499001 10.955345 -10.077396 1.406894 0.000000 -0.000000 0.000000 -0.690017 -1.524640 11.864620 -0.302457 1.935722 -11.752386 -0.726502 -1.845425 4.804811 2.738284 17.530257 -6.846754 0.809898 15.108886 19.042840 -20.231253 3.147126 -3.588283 -55.345113 -19.900954 23.339168 -7.011190 -70.793118 26.958459 -2.146194 -20.295184 -17.550809 19.496905 -6.719795 -1.409343 50.711269 4.457072 18.505271 -6.767807 19.941645 1.652652 18.472907 6.409499 -7.995329 
1.500788 0.460628 1.006315 -82.383409 -1.527813 91.587506 -2.391406 -1.286985 -3.207434 -3.961039 2.166894 12.984377 4.108121 13.250258 -15.211999 0.000000 -0.000000 0.000000 -7.324059 -0.595301 -33.636997 -0.056316 -16.808243 17.517391 10.995731 -9.515117 3.174443 0.000000 -0.000000 0.000000 -0.529894 -1.535435 11.534560 -0.392019 1.525332 -11.718603 -0.699448 -2.099447 4.852737 2.299121 13.685185 -6.695323 0.624427 10.887388 19.234466 -20.006068 3.347889 -3.346590 -55.490298 -20.558024 23.160045 -7.660747 -69.129610 27.832742 -3.281941 -20.406924 -16.491082 19.584781 -6.895752 -1.473208 50.205879 4.139138 17.689329 -6.524271 19.383951 1.657849 18.567155 6.093046 -8.018206 
1.473758 0.462829 1.001836 -83.252592 -1.465842 91.517173 -1.925301 0.234605 -1.074531 -3.975814 1.768397 13.178057 3.401263 13.121261 -16.522279 0.000000 -0.000000 0.000000 -5.719896 -0.463981 -32.324739 -0.224180 -15.792961 9.731211 10.409074 -9.288861 4.309168 0.000000 -0.000000 0.000000 -0.563402 -1.184490 11.000157 -0.457768 1.503871 -11.179970 -0.629645 -2.237806 4.853894 1.996893 10.368589 -6.179137 0.502482 7.153202 18.942189 -19.930902 3.524722 -3.007110 -55.334857 -20.678031 22.703980 -8.278676 -67.160331 29.009074 -4.997075 -20.165424 -14.981981 19.890035 -7.017359 -1.492422 49.693224 3.692352 16.864483 -6.136417 19.556204 2.071478 18.822147 5.935657 -8.289020 
